<?xml version="1.0" encoding="UTF-8"?>
<svg id="Layer_1" data-name="Layer 1" xmlns="http://www.w3.org/2000/svg" viewBox="0 0 600 200">
  <defs>
    <style>
      .cls-1, .cls-2 {
        fill: #cbc0d3;
      }

      .cls-2 {
        fill-rule: evenodd;
      }
    </style>
  </defs>
  <g>
    <path class="cls-1" d="M37.4,93.6h19.39c3.37,0,6.5.47,9.39,1.4s5.4,2.28,7.51,4.04c2.11,1.75,3.78,3.9,4.99,6.43,1.21,2.54,1.82,5.4,1.82,8.6s-.61,6.06-1.82,8.6c-1.21,2.54-2.87,4.68-4.99,6.43-2.11,1.75-4.62,3.1-7.51,4.04-2.89.94-6.02,1.4-9.39,1.4h-19.39v-.58c.74,0,1.46-.17,2.15-.5.7-.33,1.32-.75,1.88-1.26.55-.51.99-1.07,1.32-1.7.33-.62.49-1.23.49-1.81v-29.25c0-.58-.16-1.19-.49-1.81-.33-.62-.77-1.19-1.32-1.7-.55-.51-1.18-.93-1.88-1.26-.7-.33-1.42-.5-2.15-.5v-.58ZM52.48,113.19h.62c3.04-1.13,4.84-3.39,5.42-6.79.57,3.39,2.38,5.65,5.42,6.79h7.02c-.08-2.03-.44-4.04-1.08-6.03-.64-1.99-1.54-3.77-2.71-5.35-1.17-1.58-2.62-2.86-4.34-3.83-1.72-.97-3.73-1.46-6.03-1.46h-4.31v16.67ZM52.48,131.62h4.31c2.42,0,4.51-.54,6.28-1.61,1.76-1.07,3.23-2.45,4.4-4.12,1.17-1.68,2.04-3.54,2.62-5.59.57-2.05.86-4.03.86-5.94h-6.9c-1.56.62-2.8,1.58-3.72,2.87-.92,1.29-1.53,2.79-1.82,4.5-.29-1.72-.89-3.22-1.82-4.5-.92-1.29-2.17-2.24-3.72-2.87h-.49v17.25Z"/>
    <path class="cls-1" d="M106.04,133.96c.62,0,1.23-.08,1.85-.23.62-.16,1.15-.39,1.6-.7.45-.31.78-.7.98-1.17.21-.47.23-1.01.06-1.64l-.74-1.4s-.01-.06-.03-.06-.03-.02-.03-.06l-5.6-11.17c-.41.04-.82.06-1.23.06h-4.86v11.11c0,.58.16,1.19.49,1.81.33.62.77,1.19,1.32,1.7.55.51,1.18.93,1.88,1.26.7.33,1.42.5,2.15.5v.58h-20.93v-.58c.74,0,1.46-.17,2.15-.5.7-.33,1.32-.75,1.88-1.26.55-.51.99-1.07,1.32-1.7.33-.62.49-1.23.49-1.81v-29.25c0-.58-.16-1.19-.49-1.81-.33-.62-.77-1.19-1.32-1.7-.55-.51-1.18-.93-1.88-1.26-.7-.33-1.42-.5-2.15-.5v-.58h18.59c3.57,0,6.63.31,9.17.94,2.54.62,4.63,1.49,6.25,2.6,1.62,1.11,2.82,2.43,3.6,3.95.78,1.52,1.17,3.2,1.17,5.03,0,2.57-.63,4.65-1.88,6.23-1.25,1.58-3.07,2.78-5.45,3.6l6.71,13.39c.53.58,1.14,1.15,1.82,1.7.68.55,1.38,1.04,2.12,1.49s1.49.8,2.25,1.05c.76.25,1.47.38,2.12.38v.58h-23.39v-.58ZM98.04,114.65h2.59c2.22,0,4.06-.19,5.54-.58,1.48-.39,2.66-.96,3.54-1.7.88-.74,1.52-1.64,1.91-2.69.39-1.05.58-2.24.58-3.57,0-6.39-3.82-9.59-11.45-9.59h-2.71v18.13Z"/>
    <path class="cls-1" d="M130.05,93.6h34.17l1.85,12.28h-.62c0-.7-.27-1.58-.8-2.63-.53-1.05-1.19-2.08-1.97-3.07-.78-.99-1.59-1.85-2.43-2.57-.84-.72-1.57-1.08-2.19-1.08h-12.93v16.09h4.92c1.23,0,2.28-.26,3.14-.79.86-.53,1.56-1.18,2.09-1.96.53-.78.92-1.61,1.17-2.49.25-.88.37-1.67.37-2.37h.62v18.13h-.62c0-.7-.12-1.49-.37-2.37-.25-.88-.64-1.71-1.17-2.49-.53-.78-1.23-1.43-2.09-1.96-.86-.53-1.91-.79-3.14-.79h-4.92v16.08h13.54c.62,0,1.34-.36,2.19-1.08.84-.72,1.65-1.58,2.43-2.57.78-1,1.44-2.02,1.97-3.07.53-1.05.8-1.93.8-2.63h.62l-1.85,12.28h-34.78v-.58c.74,0,1.46-.17,2.15-.5.7-.33,1.32-.75,1.88-1.26.55-.51.99-1.07,1.32-1.7.33-.62.49-1.23.49-1.81v-29.25c0-.58-.16-1.19-.49-1.81-.33-.62-.77-1.19-1.32-1.7-.55-.51-1.18-.93-1.88-1.26-.7-.33-1.42-.5-2.15-.5v-.58Z"/>
    <path class="cls-1" d="M166.06,133.96c.74,0,1.54-.17,2.4-.5.86-.33,1.7-.76,2.52-1.29.82-.53,1.54-1.1,2.15-1.73.62-.62,1.05-1.21,1.29-1.75l15.21-35.97,19.02,35.97c.33.62.76,1.25,1.29,1.87.53.62,1.13,1.19,1.79,1.7.66.51,1.34.92,2.06,1.23.72.31,1.45.47,2.19.47v.58h-23.39v-.58c.74,0,1.51-.17,2.31-.5.8-.33,1.51-.76,2.12-1.29s1.06-1.09,1.32-1.7c.27-.6.24-1.2-.09-1.78h.12l-2.28-4.27h-16.56l-1.85,4.27c0,.58.22,1.19.65,1.81.43.62.98,1.19,1.66,1.7.68.51,1.42.93,2.22,1.26.8.33,1.57.5,2.31.5v.58h-18.47v-.58ZM180.78,121.5h13.79l-7.57-14.33-6.22,14.33Z"/>
    <path class="cls-1" d="M215.38,133.96c.74,0,1.53-.17,2.37-.5.84-.33,1.62-.76,2.34-1.29.72-.53,1.32-1.1,1.82-1.73.49-.62.76-1.21.8-1.75v-35.97l21.67,23.51,19.15-23.51v35.97c0,.58.16,1.19.49,1.81.33.62.77,1.19,1.32,1.7.55.51,1.18.93,1.88,1.26.7.33,1.42.5,2.15.5v.58h-20.93v-.58c.74,0,1.46-.17,2.15-.5.7-.33,1.32-.75,1.88-1.26.55-.51.99-1.07,1.32-1.7.33-.62.49-1.23.49-1.81v-19.77l-13.48,16.55-15.02-16.32v19.54c0,.58.22,1.19.65,1.81.43.62.99,1.19,1.66,1.7.68.51,1.42.93,2.22,1.26.8.33,1.57.5,2.31.5v.58h-17.24v-.58Z"/>
    <path class="cls-1" d="M293.07,95.94c-1.64,0-3.19.31-4.65.94-1.46.62-2.74,1.58-3.85,2.87-1.11,1.29-1.98,2.92-2.62,4.91-.64,1.99-.95,4.33-.95,7.02,0,2.15.34,4.43,1.02,6.84.68,2.42,1.68,4.63,3.02,6.64,1.33,2.01,2.99,3.68,4.96,5,1.97,1.33,4.23,1.99,6.77,1.99,1.27,0,2.39-.15,3.35-.44.96-.29,1.82-.66,2.56-1.11.74-.45,1.38-.96,1.94-1.52.55-.57,1.06-1.12,1.51-1.67.82-1.25,1.67-2.8,2.55-4.65.88-1.85,1.53-3.77,1.94-5.76h.62v10.88c-.41.82-1,1.68-1.75,2.57-.76.9-1.77,1.71-3.02,2.43-1.25.72-2.75,1.32-4.49,1.78-1.75.47-3.81.7-6.19.7-3.32,0-6.44-.49-9.36-1.46-2.91-.97-5.45-2.39-7.6-4.24-2.15-1.85-3.86-4.09-5.11-6.73-1.25-2.63-1.88-5.59-1.88-8.86s.53-6.24,1.6-8.89c1.07-2.65,2.54-4.89,4.43-6.73,1.89-1.83,4.12-3.25,6.71-4.24,2.59-.99,5.38-1.49,8.37-1.49,2.09,0,4.04.23,5.85.7,1.81.47,3.42,1.06,4.83,1.78s2.61,1.53,3.57,2.43c.96.9,1.65,1.75,2.06,2.57v10.88h-.62c-.41-1.99-1.06-3.91-1.94-5.76-.88-1.85-1.73-3.4-2.55-4.65-.45-.55-1-1.1-1.63-1.67-.64-.57-1.4-1.07-2.28-1.52s-1.91-.82-3.08-1.11c-1.17-.29-2.53-.44-4.09-.44Z"/>
    <path class="cls-1" d="M311.23,133.96c.74,0,1.54-.17,2.4-.5.86-.33,1.7-.76,2.52-1.29s1.54-1.1,2.16-1.73c.62-.62,1.05-1.21,1.29-1.75l15.21-35.97,19.02,35.97c.33.62.76,1.25,1.29,1.87.53.62,1.13,1.19,1.79,1.7.66.51,1.34.92,2.06,1.23.72.31,1.45.47,2.19.47v.58h-23.39v-.58c.74,0,1.51-.17,2.31-.5.8-.33,1.51-.76,2.12-1.29.62-.53,1.06-1.09,1.32-1.7.27-.6.24-1.2-.09-1.78h.12l-2.28-4.27h-16.56l-1.85,4.27c0,.58.22,1.19.65,1.81.43.62.98,1.19,1.66,1.7.68.51,1.42.93,2.22,1.26.8.33,1.57.5,2.31.5v.58h-18.47v-.58ZM325.94,121.5h13.79l-7.57-14.33-6.22,14.33Z"/>
    <path class="cls-1" d="M371.5,96.52h-5.54c-.62,0-1.34.36-2.19,1.08-.84.72-1.65,1.58-2.43,2.57-.78.99-1.44,2.02-1.97,3.07s-.8,1.93-.8,2.63h-.62l1.85-12.28h32.63l1.85,12.28h-.62c0-.7-.27-1.58-.8-2.63s-1.19-2.08-1.97-3.07c-.78-.99-1.59-1.85-2.43-2.57-.84-.72-1.57-1.08-2.19-1.08h-5.54v32.17c0,.58.16,1.19.49,1.81.33.62.77,1.19,1.32,1.7.55.51,1.18.93,1.88,1.26.7.33,1.42.5,2.15.5v.58h-20.93v-.58c.74,0,1.46-.17,2.16-.5.7-.33,1.32-.75,1.88-1.26.55-.51.99-1.07,1.32-1.7.33-.62.49-1.23.49-1.81v-32.17Z"/>
    <path class="cls-1" d="M417.98,95.94c-1.64,0-3.19.31-4.65.94-1.46.62-2.74,1.58-3.85,2.87-1.11,1.29-1.98,2.92-2.62,4.91-.64,1.99-.95,4.33-.95,7.02,0,2.15.34,4.43,1.02,6.84.68,2.42,1.68,4.63,3.02,6.64s2.99,3.68,4.96,5c1.97,1.33,4.23,1.99,6.77,1.99,1.27,0,2.39-.15,3.35-.44.96-.29,1.82-.66,2.56-1.11.74-.45,1.38-.96,1.94-1.52.55-.57,1.06-1.12,1.51-1.67.82-1.25,1.67-2.8,2.55-4.65.88-1.85,1.53-3.77,1.94-5.76h.62v10.88c-.41.82-1,1.68-1.75,2.57-.76.9-1.77,1.71-3.02,2.43-1.25.72-2.75,1.32-4.49,1.78-1.75.47-3.81.7-6.19.7-3.32,0-6.44-.49-9.36-1.46-2.92-.97-5.45-2.39-7.6-4.24-2.15-1.85-3.86-4.09-5.11-6.73-1.25-2.63-1.88-5.59-1.88-8.86s.53-6.24,1.6-8.89c1.07-2.65,2.54-4.89,4.43-6.73s4.12-3.25,6.71-4.24c2.58-.99,5.38-1.49,8.37-1.49,2.09,0,4.04.23,5.85.7,1.81.47,3.42,1.06,4.83,1.78s2.61,1.53,3.57,2.43c.96.9,1.65,1.75,2.06,2.57v10.88h-.62c-.41-1.99-1.06-3.91-1.94-5.76-.88-1.85-1.73-3.4-2.55-4.65-.45-.55-1-1.1-1.63-1.67-.64-.57-1.4-1.07-2.28-1.52s-1.91-.82-3.08-1.11c-1.17-.29-2.53-.44-4.09-.44Z"/>
    <path class="cls-1" d="M437.98,93.6h20.93v.58c-.74,0-1.46.17-2.15.5-.7.33-1.32.75-1.88,1.26-.55.51-1,1.07-1.32,1.7-.33.62-.49,1.23-.49,1.81v13.16h16.75v-13.16c0-.58-.16-1.19-.49-1.81-.33-.62-.77-1.19-1.32-1.7-.55-.51-1.18-.93-1.88-1.26-.7-.33-1.42-.5-2.15-.5v-.58h20.93v.58c-.74,0-1.46.17-2.15.5-.7.33-1.32.75-1.88,1.26-.55.51-1,1.07-1.32,1.7-.33.62-.49,1.23-.49,1.81v29.25c0,.58.16,1.19.49,1.81.33.62.77,1.19,1.32,1.7.55.51,1.18.93,1.88,1.26.7.33,1.42.5,2.15.5v.58h-20.93v-.58c.74,0,1.46-.17,2.15-.5.7-.33,1.32-.75,1.88-1.26.55-.51.99-1.07,1.32-1.7.33-.62.49-1.23.49-1.81v-13.16h-16.75v13.16c0,.58.16,1.19.49,1.81.33.62.77,1.19,1.32,1.7.55.51,1.18.93,1.88,1.26.7.33,1.42.5,2.15.5v.58h-20.93v-.58c.74,0,1.46-.17,2.16-.5.7-.33,1.32-.75,1.88-1.26.55-.51.99-1.07,1.32-1.7.33-.62.49-1.23.49-1.81v-29.25c0-.58-.16-1.19-.49-1.81-.33-.62-.77-1.19-1.32-1.7-.55-.51-1.18-.93-1.88-1.26-.7-.33-1.42-.5-2.16-.5v-.58Z"/>
    <path class="cls-1" d="M486.13,93.6h34.17l1.85,12.28h-.62c0-.7-.27-1.58-.8-2.63s-1.19-2.08-1.97-3.07c-.78-.99-1.59-1.85-2.43-2.57-.84-.72-1.57-1.08-2.19-1.08h-12.93v16.09h4.93c1.23,0,2.28-.26,3.14-.79.86-.53,1.56-1.18,2.09-1.96.53-.78.92-1.61,1.17-2.49s.37-1.67.37-2.37h.62v18.13h-.62c0-.7-.12-1.49-.37-2.37-.25-.88-.64-1.71-1.17-2.49-.53-.78-1.23-1.43-2.09-1.96-.86-.53-1.91-.79-3.14-.79h-4.93v16.08h13.54c.62,0,1.34-.36,2.19-1.08.84-.72,1.65-1.58,2.43-2.57.78-1,1.44-2.02,1.97-3.07.53-1.05.8-1.93.8-2.63h.62l-1.85,12.28h-34.78v-.58c.74,0,1.46-.17,2.16-.5.7-.33,1.32-.75,1.88-1.26.55-.51.99-1.07,1.32-1.7.33-.62.49-1.23.49-1.81v-29.25c0-.58-.16-1.19-.49-1.81-.33-.62-.77-1.19-1.32-1.7-.55-.51-1.18-.93-1.88-1.26-.7-.33-1.42-.5-2.16-.5v-.58Z"/>
    <path class="cls-1" d="M547.07,133.96c.62,0,1.23-.08,1.85-.23.62-.16,1.15-.39,1.6-.7.45-.31.78-.7.99-1.17.2-.47.22-1.01.06-1.64l-.74-1.4s-.01-.06-.03-.06c-.02,0-.03-.02-.03-.06l-5.6-11.17c-.41.04-.82.06-1.23.06h-4.86v11.11c0,.58.16,1.19.49,1.81.33.62.77,1.19,1.32,1.7.55.51,1.18.93,1.88,1.26.7.33,1.42.5,2.15.5v.58h-20.93v-.58c.74,0,1.46-.17,2.16-.5.7-.33,1.32-.75,1.88-1.26.55-.51.99-1.07,1.32-1.7.33-.62.49-1.23.49-1.81v-29.25c0-.58-.16-1.19-.49-1.81-.33-.62-.77-1.19-1.32-1.7-.55-.51-1.18-.93-1.88-1.26-.7-.33-1.42-.5-2.16-.5v-.58h18.59c3.57,0,6.63.31,9.17.94,2.54.62,4.63,1.49,6.25,2.6s2.82,2.43,3.6,3.95c.78,1.52,1.17,3.2,1.17,5.03,0,2.57-.63,4.65-1.88,6.23s-3.07,2.78-5.45,3.6l6.71,13.39c.53.58,1.14,1.15,1.82,1.7.68.55,1.39,1.04,2.12,1.49.74.45,1.49.8,2.25,1.05.76.25,1.47.38,2.12.38v.58h-23.39v-.58ZM539.07,114.65h2.59c2.22,0,4.06-.19,5.54-.58,1.48-.39,2.66-.96,3.54-1.7.88-.74,1.52-1.64,1.91-2.69.39-1.05.58-2.24.58-3.57,0-6.39-3.82-9.59-11.45-9.59h-2.71v18.13Z"/>
  </g>
  <path class="cls-2" d="M320.17,135.36h-1.29c0-16.9-.64-38.19-8.52-50.82-7.89-12.63-20.42-12.43-30.97-12.43v-2.07c10.56,0,26.4-1.17,34.28-13.83,7.89-12.66,5.21-32.57,5.21-49.42h1.29c0,16.9-.86,38.2,7.03,50.83,7.89,12.63,21.91,12.42,32.47,12.42v2.07c-10.55,0-23.38-.76-31.26,11.86-7.89,12.63-8.23,34.48-8.23,51.38h0Z"/>
</svg>