<?xml version="1.0" encoding="UTF-8"?>
<svg id="Layer_1" data-name="Layer 1" xmlns="http://www.w3.org/2000/svg" viewBox="0 0 460.86 146.38">
  <defs>
    <style>
      .cls-1 {
        fill: #fff;
      }

      .cls-2, .cls-3 {
        fill: #82667f;
      }

      .cls-3 {
        fill-rule: evenodd;
      }
    </style>
  </defs>
  <g>
    <path class="cls-2" d="M24.73,100.57h15.87c2.75,0,5.31.41,7.68,1.22,2.37.81,4.42,1.99,6.14,3.51,1.73,1.53,3.09,3.39,4.08,5.6.99,2.21,1.49,4.7,1.49,7.48s-.5,5.28-1.49,7.48c-.99,2.21-2.35,4.07-4.08,5.6-1.73,1.53-3.78,2.7-6.14,3.51-2.37.81-4.93,1.22-7.68,1.22h-15.87v-.51c.6,0,1.19-.14,1.76-.43.57-.29,1.08-.65,1.54-1.09.45-.44.81-.93,1.08-1.48.27-.54.4-1.07.4-1.58v-25.45c0-.51-.13-1.04-.4-1.58-.27-.54-.63-1.04-1.08-1.48-.45-.44-.97-.81-1.54-1.09-.57-.29-1.16-.43-1.76-.43v-.51ZM37.07,117.62h.5c2.48-.98,3.96-2.95,4.43-5.9.47,2.95,1.95,4.92,4.43,5.9h5.74c-.07-1.76-.36-3.51-.88-5.24-.52-1.73-1.26-3.28-2.22-4.66-.96-1.37-2.14-2.49-3.55-3.33-1.41-.85-3.06-1.27-4.94-1.27h-3.53v14.51ZM37.07,133.65h3.53c1.98,0,3.69-.47,5.14-1.4,1.44-.93,2.64-2.13,3.6-3.59.96-1.46,1.67-3.08,2.14-4.86.47-1.78.71-3.5.71-5.17h-5.64c-1.28.54-2.29,1.38-3.05,2.49-.76,1.12-1.25,2.43-1.49,3.92-.24-1.49-.73-2.8-1.49-3.92-.76-1.12-1.77-1.95-3.05-2.49h-.4v15.02Z"/>
    <path class="cls-2" d="M80.89,135.69c.5,0,1.01-.07,1.51-.2.5-.13.94-.34,1.31-.61.37-.27.64-.61.81-1.02.17-.41.18-.88.05-1.42l-.6-1.22s0-.05-.02-.05c-.02,0-.03-.02-.03-.05l-4.58-9.72c-.34.03-.67.05-1.01.05h-3.98v9.67c0,.51.13,1.04.4,1.58.27.54.63,1.04,1.08,1.48.45.44.96.81,1.54,1.09.57.29,1.16.43,1.76.43v.51h-17.12v-.51c.6,0,1.19-.14,1.76-.43.57-.29,1.08-.65,1.54-1.09.45-.44.81-.93,1.08-1.48.27-.54.4-1.07.4-1.58v-25.45c0-.51-.13-1.04-.4-1.58-.27-.54-.63-1.04-1.08-1.48-.45-.44-.97-.81-1.54-1.09-.57-.29-1.16-.43-1.76-.43v-.51h15.21c2.92,0,5.42.27,7.5.81,2.08.54,3.79,1.3,5.11,2.27,1.33.97,2.31,2.11,2.95,3.44.64,1.32.96,2.78.96,4.38,0,2.24-.51,4.05-1.54,5.42-1.02,1.37-2.51,2.42-4.46,3.13l5.49,11.66c.44.51.93,1,1.49,1.48.55.48,1.13.91,1.74,1.3.6.39,1.22.7,1.84.92.62.22,1.2.33,1.74.33v.51h-19.14v-.51ZM74.34,118.89h2.12c1.81,0,3.32-.17,4.53-.51,1.21-.34,2.17-.83,2.9-1.48.72-.64,1.24-1.42,1.56-2.34.32-.92.48-1.95.48-3.11,0-5.56-3.12-8.35-9.37-8.35h-2.22v15.78Z"/>
    <path class="cls-2" d="M100.53,100.57h27.95l1.51,10.69h-.5c0-.61-.22-1.37-.65-2.29-.44-.92-.97-1.81-1.61-2.67-.64-.87-1.3-1.61-1.99-2.24-.69-.63-1.28-.94-1.79-.94h-10.58v14h4.03c1.01,0,1.86-.23,2.57-.69s1.28-1.03,1.71-1.71c.44-.68.76-1.4.96-2.16.2-.76.3-1.45.3-2.06h.5v15.78h-.5c0-.61-.1-1.3-.3-2.06-.2-.76-.52-1.48-.96-2.16-.44-.68-1.01-1.25-1.71-1.71s-1.56-.69-2.57-.69h-4.03v14h11.08c.5,0,1.1-.31,1.79-.94.69-.63,1.35-1.38,1.99-2.24.64-.87,1.18-1.76,1.61-2.67.44-.92.65-1.68.65-2.29h.5l-1.51,10.69h-28.46v-.51c.6,0,1.19-.14,1.76-.43.57-.29,1.08-.65,1.54-1.09.45-.44.81-.93,1.08-1.48.27-.54.4-1.07.4-1.58v-25.45c0-.51-.13-1.04-.4-1.58-.27-.54-.63-1.04-1.08-1.48-.45-.44-.97-.81-1.54-1.09-.57-.29-1.16-.43-1.76-.43v-.51Z"/>
    <path class="cls-2" d="M130,135.69c.6,0,1.26-.14,1.96-.43s1.39-.66,2.06-1.12c.67-.46,1.26-.96,1.76-1.5.5-.54.86-1.05,1.06-1.53l12.44-31.3,15.56,31.3c.27.54.62,1.09,1.06,1.63.44.54.92,1.04,1.46,1.48.54.44,1.1.8,1.69,1.07.59.27,1.18.41,1.79.41v.51h-19.14v-.51c.6,0,1.23-.14,1.89-.43s1.23-.66,1.74-1.12c.5-.46.86-.95,1.08-1.48.22-.53.19-1.04-.08-1.55h.1l-1.86-3.72h-13.55l-1.51,3.72c0,.51.18,1.04.53,1.58s.81,1.04,1.36,1.48c.55.44,1.16.81,1.81,1.09s1.28.43,1.89.43v.51h-15.11v-.51ZM142.04,124.85h11.28l-6.2-12.47-5.09,12.47Z"/>
    <path class="cls-2" d="M170.34,135.69c.6,0,1.25-.14,1.94-.43.69-.29,1.33-.66,1.91-1.12.59-.46,1.08-.96,1.49-1.5s.62-1.05.65-1.53v-31.3l17.73,20.46,15.66-20.46v31.3c0,.51.13,1.04.4,1.58.27.54.63,1.04,1.08,1.48.45.44.96.81,1.54,1.09.57.29,1.16.43,1.76.43v.51h-17.12v-.51c.6,0,1.19-.14,1.76-.43.57-.29,1.08-.65,1.54-1.09.45-.44.81-.93,1.08-1.48.27-.54.4-1.07.4-1.58v-17.2l-11.03,14.4-12.29-14.2v17c0,.51.18,1.04.53,1.58.35.54.81,1.04,1.36,1.48.55.44,1.16.81,1.81,1.09s1.28.43,1.89.43v.51h-14.1v-.51Z"/>
    <path class="cls-2" d="M233.91,102.6c-1.34,0-2.61.27-3.8.81-1.19.54-2.24,1.37-3.15,2.49-.91,1.12-1.62,2.54-2.14,4.28-.52,1.73-.78,3.77-.78,6.11,0,1.87.28,3.85.83,5.96.55,2.1,1.38,4.03,2.47,5.78,1.09,1.75,2.44,3.2,4.05,4.35,1.61,1.15,3.46,1.73,5.54,1.73,1.04,0,1.96-.13,2.74-.38.79-.25,1.49-.58,2.09-.97.6-.39,1.13-.83,1.59-1.32s.86-.98,1.23-1.45c.67-1.08,1.37-2.43,2.09-4.05.72-1.61,1.25-3.28,1.59-5.01h.5v9.47c-.34.71-.81,1.46-1.44,2.24s-1.44,1.48-2.47,2.11-2.25,1.14-3.68,1.55c-1.43.41-3.12.61-5.06.61-2.72,0-5.27-.42-7.66-1.27-2.38-.85-4.46-2.08-6.22-3.69-1.76-1.61-3.16-3.56-4.18-5.85-1.02-2.29-1.54-4.86-1.54-7.71s.44-5.43,1.31-7.74c.87-2.31,2.08-4.26,3.63-5.85,1.54-1.59,3.37-2.82,5.49-3.69,2.12-.87,4.4-1.3,6.85-1.3,1.71,0,3.31.2,4.79.61,1.48.41,2.79.92,3.95,1.55,1.16.63,2.13,1.33,2.92,2.11.79.78,1.35,1.53,1.69,2.24v9.47h-.5c-.34-1.73-.87-3.4-1.59-5.01s-1.42-2.96-2.09-4.05c-.37-.47-.81-.96-1.33-1.45-.52-.49-1.14-.93-1.86-1.32-.72-.39-1.56-.71-2.52-.97-.96-.25-2.07-.38-3.35-.38Z"/>
    <path class="cls-2" d="M248.76,135.69c.6,0,1.26-.14,1.96-.43s1.39-.66,2.07-1.12c.67-.46,1.26-.96,1.76-1.5s.86-1.05,1.06-1.53l12.44-31.3,15.56,31.3c.27.54.62,1.09,1.06,1.63.44.54.92,1.04,1.46,1.48.54.44,1.1.8,1.69,1.07.59.27,1.18.41,1.79.41v.51h-19.14v-.51c.6,0,1.23-.14,1.89-.43.66-.29,1.23-.66,1.74-1.12.5-.46.86-.95,1.08-1.48s.19-1.04-.08-1.55h.1l-1.86-3.72h-13.55l-1.51,3.72c0,.51.18,1.04.53,1.58s.81,1.04,1.36,1.48c.55.44,1.16.81,1.81,1.09.66.29,1.28.43,1.89.43v.51h-15.11v-.51ZM260.8,124.85h11.28l-6.2-12.47-5.09,12.47Z"/>
    <path class="cls-2" d="M298.07,103.11h-4.53c-.5,0-1.1.31-1.79.94-.69.63-1.35,1.37-1.99,2.24s-1.18,1.76-1.61,2.67c-.44.92-.65,1.68-.65,2.29h-.5l1.51-10.69h26.7l1.51,10.69h-.5c0-.61-.22-1.37-.65-2.29-.44-.92-.97-1.81-1.61-2.67s-1.3-1.61-1.99-2.24c-.69-.63-1.28-.94-1.79-.94h-4.53v28c0,.51.13,1.04.4,1.58.27.54.63,1.04,1.08,1.48.45.44.96.81,1.54,1.09.57.29,1.16.43,1.76.43v.51h-17.12v-.51c.6,0,1.19-.14,1.76-.43.57-.29,1.08-.65,1.54-1.09.45-.44.81-.93,1.08-1.48.27-.54.4-1.07.4-1.58v-28Z"/>
    <path class="cls-2" d="M336.1,102.6c-1.34,0-2.61.27-3.8.81-1.19.54-2.24,1.37-3.15,2.49-.91,1.12-1.62,2.54-2.14,4.28-.52,1.73-.78,3.77-.78,6.11,0,1.87.28,3.85.83,5.96.55,2.1,1.38,4.03,2.47,5.78s2.44,3.2,4.05,4.35c1.61,1.15,3.46,1.73,5.54,1.73,1.04,0,1.96-.13,2.75-.38.79-.25,1.49-.58,2.09-.97.6-.39,1.13-.83,1.59-1.32s.86-.98,1.23-1.45c.67-1.08,1.37-2.43,2.09-4.05.72-1.61,1.25-3.28,1.59-5.01h.5v9.47c-.34.71-.81,1.46-1.44,2.24s-1.44,1.48-2.47,2.11-2.25,1.14-3.68,1.55c-1.43.41-3.12.61-5.06.61-2.72,0-5.27-.42-7.66-1.27-2.38-.85-4.46-2.08-6.22-3.69-1.76-1.61-3.16-3.56-4.18-5.85s-1.54-4.86-1.54-7.71.44-5.43,1.31-7.74c.87-2.31,2.08-4.26,3.63-5.85,1.54-1.59,3.37-2.82,5.49-3.69,2.12-.87,4.4-1.3,6.85-1.3,1.71,0,3.31.2,4.79.61,1.48.41,2.79.92,3.95,1.55,1.16.63,2.13,1.33,2.92,2.11.79.78,1.35,1.53,1.69,2.24v9.47h-.5c-.34-1.73-.87-3.4-1.59-5.01s-1.42-2.96-2.09-4.05c-.37-.47-.81-.96-1.33-1.45s-1.14-.93-1.86-1.32c-.72-.39-1.56-.71-2.52-.97-.96-.25-2.07-.38-3.35-.38Z"/>
    <path class="cls-2" d="M352.47,100.57h17.12v.51c-.6,0-1.19.14-1.76.43-.57.29-1.08.65-1.54,1.09-.45.44-.82.93-1.08,1.48-.27.54-.4,1.07-.4,1.58v11.45h13.7v-11.45c0-.51-.13-1.04-.4-1.58s-.63-1.04-1.08-1.48c-.45-.44-.97-.81-1.54-1.09-.57-.29-1.16-.43-1.76-.43v-.51h17.12v.51c-.6,0-1.19.14-1.76.43-.57.29-1.08.65-1.54,1.09-.45.44-.81.93-1.08,1.48-.27.54-.4,1.07-.4,1.58v25.45c0,.51.13,1.04.4,1.58.27.54.63,1.04,1.08,1.48.45.44.96.81,1.54,1.09.57.29,1.16.43,1.76.43v.51h-17.12v-.51c.6,0,1.19-.14,1.76-.43.57-.29,1.08-.65,1.54-1.09.45-.44.81-.93,1.08-1.48s.4-1.07.4-1.58v-11.45h-13.7v11.45c0,.51.13,1.04.4,1.58.27.54.63,1.04,1.08,1.48.45.44.96.81,1.54,1.09.57.29,1.16.43,1.76.43v.51h-17.12v-.51c.6,0,1.19-.14,1.76-.43.57-.29,1.08-.65,1.54-1.09.45-.44.81-.93,1.08-1.48.27-.54.4-1.07.4-1.58v-25.45c0-.51-.13-1.04-.4-1.58-.27-.54-.63-1.04-1.08-1.48-.45-.44-.97-.81-1.54-1.09-.57-.29-1.16-.43-1.76-.43v-.51Z"/>
    <path class="cls-2" d="M391.86,100.57h27.95l1.51,10.69h-.5c0-.61-.22-1.37-.65-2.29-.44-.92-.97-1.81-1.61-2.67s-1.3-1.61-1.99-2.24c-.69-.63-1.28-.94-1.79-.94h-10.58v14h4.03c1.01,0,1.86-.23,2.57-.69.71-.46,1.28-1.03,1.71-1.71.44-.68.76-1.4.96-2.16s.3-1.45.3-2.06h.5v15.78h-.5c0-.61-.1-1.3-.3-2.06-.2-.76-.52-1.48-.96-2.16-.44-.68-1.01-1.25-1.71-1.71-.71-.46-1.56-.69-2.57-.69h-4.03v14h11.08c.5,0,1.1-.31,1.79-.94.69-.63,1.35-1.38,1.99-2.24s1.17-1.76,1.61-2.67c.44-.92.65-1.68.65-2.29h.5l-1.51,10.69h-28.46v-.51c.6,0,1.19-.14,1.76-.43.57-.29,1.08-.65,1.54-1.09.45-.44.81-.93,1.08-1.48.27-.54.4-1.07.4-1.58v-25.45c0-.51-.13-1.04-.4-1.58-.27-.54-.63-1.04-1.08-1.48-.45-.44-.97-.81-1.54-1.09-.57-.29-1.16-.43-1.76-.43v-.51Z"/>
    <path class="cls-2" d="M441.72,135.69c.5,0,1.01-.07,1.51-.2.5-.13.94-.34,1.31-.61.37-.27.64-.61.81-1.02s.18-.88.05-1.42l-.6-1.22s0-.05-.03-.05-.02-.02-.02-.05l-4.58-9.72c-.34.03-.67.05-1.01.05h-3.98v9.67c0,.51.13,1.04.4,1.58.27.54.63,1.04,1.08,1.48.45.44.96.81,1.54,1.09.57.29,1.16.43,1.76.43v.51h-17.12v-.51c.6,0,1.19-.14,1.76-.43.57-.29,1.08-.65,1.54-1.09.45-.44.81-.93,1.08-1.48.27-.54.4-1.07.4-1.58v-25.45c0-.51-.13-1.04-.4-1.58-.27-.54-.63-1.04-1.08-1.48-.45-.44-.97-.81-1.54-1.09-.57-.29-1.16-.43-1.76-.43v-.51h15.21c2.92,0,5.42.27,7.5.81,2.08.54,3.79,1.3,5.11,2.27,1.33.97,2.31,2.11,2.95,3.44.64,1.32.96,2.78.96,4.38,0,2.24-.51,4.05-1.54,5.42-1.02,1.37-2.51,2.42-4.46,3.13l5.49,11.66c.44.51.93,1,1.49,1.48.55.48,1.13.91,1.74,1.3.6.39,1.22.7,1.84.92.62.22,1.2.33,1.74.33v.51h-19.14v-.51ZM435.17,118.89h2.12c1.81,0,3.32-.17,4.53-.51s2.17-.83,2.9-1.48c.72-.64,1.24-1.42,1.56-2.34.32-.92.48-1.95.48-3.11,0-5.56-3.12-8.35-9.37-8.35h-2.22v15.78Z"/>
  </g>
  <path class="cls-3" d="M240.09,92.45h-.88c0-12.15-.43-27.46-5.79-36.54-5.36-9.08-13.87-8.94-21.05-8.94v-1.49c7.17,0,17.94-.84,23.3-9.95,5.36-9.1,3.54-23.42,3.54-35.53h.88c0,12.15-.58,27.47,4.77,36.55,5.36,9.08,14.89,8.93,22.06,8.93v1.49c-7.17,0-15.89-.55-21.25,8.53-5.36,9.08-5.59,24.79-5.59,36.95h0Z"/>
  <path class="cls-1" d="M7.36,49.06c2.25,1.53,1.84,21.75-5.98,20-2.6-6.28-2.03-18.63,5.98-20Z"/>
  <path class="cls-2" d="M202.28,72.79c3.56-.81,5.79,3.52,5.14,7.01,3.18-1.76,7.23-.44,9.5,2.44l.47-.15c1.14-2.64,3.66-2.09,5.77-1.24,1.25-4.55,5.76-.85,8.15.42,1.46.77,4.07.86,4.08,3.09.23.25,2.84-.95,3.39-1.03.94-.15,2.49.22,3.16,0,.35-.11-.06-1.44,1.67-1.75,1.62-.29,2.68.56,3.94.45,3.32-.3,1.37-2.84,1.32-4.85-.08-3.24,3.15-3.78,5.49-2.98-1.07-2.42-.29-5.12,2.25-5.61-3.53-3.35,1.57-5.2,4.18-3.5-5.13-14.38,25.24-14.51,21.54-.35,2.31-1,7.39-1.94,7.07,2.1.96-.04,2.01-.1,2.74.69.61,1.09-.62,2-.49,2.11,4.5-.63,9.41,1.5,9.64,7.01,1.07-.33,2-1.12,3.13-1.32,2.01-.35,5.41-.3,5.23,2.72,3.13-1.59,6.68-2.12,10.03-.95.89.31,2.23,1.54,2.71,1.58.45.05,1.93-.82,2.89-.85,4.43-.12,3.05,3.96,5.89,6.36,4.21,3.57,15.59,3.11,21.06,3.68,3.32.35,14.41,1.34,16.67,3.21.36.3.66.37.53.99-1.12.06-2.25-.08-3.37,0-21.41,1.7-43.55,4.51-64.92,4.92-3.95.07-7.86.02-11.75-.72l.2-1.08,2.05-1.2c.01-.75-4.78-1.19-5.61-1.24-11.55-.7-24.68.27-36.35.7-27.87,1.04-55.96,3.38-83.87,3.89-7.25.13-15.26.73-22.03-2.13-.1-.75-.03-.56.41-.78,2.03-1.01,11.46-1.09,12.13-2.03-.15-.6-.64-.85-1.13-1.04-1.04-.4-3.9-.63-5.14-.71-5.42-.33-11,.49-16.39.69-9.37.36-18.74.8-28.12,1.05-.11-.55.15-.73.48-1.05,1.48-1.47,7.86-2.08,10.3-3.14s4.95-3.9,7.71-1.77c.33-.02.97-3.41,1.28-4.2,1.97-5.06,7.97-7.9,12.77-6.56,1.68.47,2.89,1.68,4.42,2.36-.26-6.2,4.94-10.08,10.29-8.23.64.22,3.35,2.09,3.54,1.92-2.08-4.48.53-10.01,5.14-10.52-.48-.73-1.43-1.08-1.93-1.92-2.47-4.16,1.65-9,5.31-5.1.96-1.39,1.39-3.05,2.28-4.51,6.71-11.07,23.45-11.58,30.48-.7,3.4,5.26,5.19,12.44.84,17.67,2.28,1.3,3.81,3.22,3.85,6.14Z"/>
</svg>