<?xml version="1.0" encoding="UTF-8"?>
<svg id="Layer_1" data-name="Layer 1" xmlns="http://www.w3.org/2000/svg" viewBox="0 0 600 200">
  <defs>
    <style>
      .cls-1 {
        isolation: isolate;
      }

      .cls-2, .cls-3 {
        fill: #cec2ea;
      }

      .cls-3 {
        fill-rule: evenodd;
      }
    </style>
  </defs>
  <g class="cls-1">
    <g class="cls-1">
      <path class="cls-2" d="M89.91,116.57h16.03c2.78,0,5.37.41,7.76,1.22,2.39.81,4.46,1.99,6.21,3.51,1.75,1.53,3.12,3.39,4.12,5.6,1,2.21,1.5,4.7,1.5,7.48s-.5,5.28-1.5,7.48c-1,2.21-2.38,4.07-4.12,5.6-1.75,1.53-3.82,2.7-6.21,3.51-2.39.81-4.98,1.22-7.76,1.22h-16.03v-.51c.61,0,1.2-.14,1.78-.43.58-.29,1.09-.65,1.55-1.09.46-.44.82-.93,1.09-1.48.27-.54.41-1.07.41-1.58v-25.45c0-.51-.14-1.03-.41-1.58-.27-.54-.64-1.03-1.09-1.48-.46-.44-.98-.81-1.55-1.09-.58-.29-1.17-.43-1.78-.43v-.51ZM102.38,133.62h.51c2.51-.98,4-2.95,4.48-5.9.47,2.95,1.97,4.92,4.48,5.9h5.8c-.07-1.76-.37-3.51-.89-5.24-.53-1.73-1.27-3.28-2.24-4.66s-2.16-2.49-3.59-3.33c-1.43-.85-3.09-1.27-4.99-1.27h-3.56v14.51ZM102.38,149.66h3.56c2,0,3.73-.47,5.19-1.4,1.46-.93,2.67-2.13,3.64-3.59.97-1.46,1.69-3.08,2.16-4.86.47-1.78.71-3.5.71-5.17h-5.7c-1.29.54-2.32,1.37-3.08,2.49s-1.26,2.43-1.5,3.92c-.24-1.49-.74-2.8-1.5-3.92-.76-1.12-1.79-1.95-3.08-2.49h-.41v15.02Z"/>
      <path class="cls-2" d="M146.66,151.69c.51,0,1.02-.07,1.53-.2.51-.13.95-.34,1.32-.61.37-.27.64-.61.81-1.02.17-.41.19-.88.05-1.42l-.61-1.22s0-.05-.03-.05-.03-.02-.03-.05l-4.63-9.72c-.34.03-.68.05-1.02.05h-4.02v9.67c0,.51.14,1.04.41,1.58.27.54.64,1.04,1.09,1.48.46.44.98.81,1.55,1.09.58.29,1.17.43,1.78.43v.51h-17.31v-.51c.61,0,1.2-.14,1.78-.43.58-.29,1.09-.65,1.55-1.09.46-.44.82-.93,1.09-1.48.27-.54.41-1.07.41-1.58v-25.45c0-.51-.14-1.03-.41-1.58-.27-.54-.64-1.03-1.09-1.48-.46-.44-.98-.81-1.55-1.09-.58-.29-1.17-.43-1.78-.43v-.51h15.37c2.95,0,5.48.27,7.58.81,2.1.54,3.83,1.3,5.17,2.26,1.34.97,2.33,2.11,2.98,3.44.64,1.32.97,2.78.97,4.38,0,2.24-.52,4.05-1.55,5.42-1.04,1.37-2.54,2.42-4.5,3.13l5.55,11.66c.44.51.94,1,1.5,1.48.56.48,1.15.91,1.76,1.3.61.39,1.23.7,1.86.92.63.22,1.21.33,1.76.33v.51h-19.34v-.51ZM140.04,134.89h2.14c1.83,0,3.36-.17,4.58-.51,1.22-.34,2.2-.83,2.93-1.48.73-.64,1.25-1.42,1.58-2.34.32-.92.48-1.95.48-3.1,0-5.56-3.16-8.35-9.47-8.35h-2.24v15.78Z"/>
      <path class="cls-2" d="M166.51,116.57h28.25l1.53,10.69h-.51c0-.61-.22-1.37-.66-2.29-.44-.92-.98-1.81-1.63-2.67-.65-.87-1.32-1.61-2.01-2.24-.7-.63-1.3-.94-1.81-.94h-10.69v14h4.07c1.02,0,1.88-.23,2.6-.69.71-.46,1.29-1.03,1.73-1.71.44-.68.76-1.4.97-2.16.2-.76.31-1.45.31-2.06h.51v15.78h-.51c0-.61-.1-1.3-.31-2.06-.2-.76-.53-1.48-.97-2.16-.44-.68-1.02-1.25-1.73-1.71-.71-.46-1.58-.69-2.6-.69h-4.07v14h11.2c.51,0,1.11-.31,1.81-.94.7-.63,1.37-1.38,2.01-2.24.64-.87,1.19-1.76,1.63-2.67.44-.92.66-1.68.66-2.29h.51l-1.53,10.69h-28.76v-.51c.61,0,1.2-.14,1.78-.43.58-.29,1.09-.65,1.55-1.09.46-.44.82-.93,1.09-1.48.27-.54.41-1.07.41-1.58v-25.45c0-.51-.14-1.03-.41-1.58-.27-.54-.64-1.03-1.09-1.48-.46-.44-.98-.81-1.55-1.09-.58-.29-1.17-.43-1.78-.43v-.51Z"/>
      <path class="cls-2" d="M196.29,151.69c.61,0,1.27-.14,1.99-.43.71-.29,1.41-.66,2.09-1.12.68-.46,1.27-.96,1.78-1.5.51-.54.87-1.05,1.07-1.53l12.57-31.3,15.73,31.3c.27.54.63,1.09,1.07,1.63.44.54.93,1.04,1.48,1.48.54.44,1.11.8,1.71,1.07.59.27,1.2.41,1.81.41v.51h-19.34v-.51c.61,0,1.25-.14,1.91-.43s1.25-.66,1.76-1.12c.51-.46.87-.95,1.09-1.48.22-.53.19-1.04-.08-1.55h.1l-1.88-3.72h-13.69l-1.53,3.72c0,.51.18,1.04.53,1.58.36.54.81,1.04,1.37,1.48.56.44,1.17.81,1.83,1.09s1.3.43,1.91.43v.51h-15.27v-.51ZM208.45,140.85h11.4l-6.26-12.47-5.14,12.47Z"/>
      <path class="cls-2" d="M237.06,151.69c.61,0,1.26-.14,1.96-.43.69-.29,1.34-.66,1.93-1.12.59-.46,1.09-.96,1.5-1.5.41-.54.63-1.05.66-1.53v-31.3l17.92,20.46,15.83-20.46v31.3c0,.51.14,1.04.41,1.58.27.54.64,1.04,1.09,1.48.46.44.98.81,1.55,1.09.58.29,1.17.43,1.78.43v.51h-17.31v-.51c.61,0,1.2-.14,1.78-.43.58-.29,1.09-.65,1.55-1.09.46-.44.82-.93,1.09-1.48.27-.54.41-1.07.41-1.58v-17.2l-11.15,14.4-12.42-14.2v17c0,.51.18,1.04.53,1.58s.81,1.04,1.37,1.48c.56.44,1.17.81,1.83,1.09.66.29,1.3.43,1.91.43v.51h-14.25v-.51Z"/>
      <path class="cls-2" d="M301.29,118.61c-1.36,0-2.64.27-3.84.81-1.21.54-2.27,1.37-3.18,2.49-.92,1.12-1.64,2.54-2.16,4.28-.53,1.73-.79,3.77-.79,6.11,0,1.87.28,3.85.84,5.96.56,2.1,1.39,4.03,2.49,5.78,1.1,1.75,2.47,3.2,4.1,4.35,1.63,1.15,3.5,1.73,5.6,1.73,1.05,0,1.98-.13,2.77-.38.8-.25,1.5-.58,2.11-.97.61-.39,1.15-.83,1.6-1.32s.87-.98,1.25-1.45c.68-1.08,1.38-2.43,2.11-4.05.73-1.61,1.26-3.28,1.6-5.01h.51v9.47c-.34.71-.82,1.46-1.45,2.24-.63.78-1.46,1.49-2.49,2.11-1.04.63-2.27,1.14-3.72,1.55-1.44.41-3.15.61-5.12.61-2.75,0-5.33-.42-7.74-1.27-2.41-.85-4.5-2.08-6.29-3.69-1.78-1.61-3.19-3.56-4.22-5.85-1.04-2.29-1.55-4.86-1.55-7.71s.44-5.43,1.32-7.74c.88-2.31,2.1-4.26,3.66-5.85,1.56-1.59,3.41-2.83,5.55-3.69,2.14-.87,4.44-1.3,6.92-1.3,1.73,0,3.34.2,4.84.61,1.49.41,2.82.92,4,1.55,1.17.63,2.15,1.33,2.95,2.11.8.78,1.37,1.53,1.71,2.24v9.47h-.51c-.34-1.73-.87-3.4-1.6-5.01-.73-1.61-1.43-2.96-2.11-4.05-.37-.48-.82-.96-1.35-1.45-.53-.49-1.15-.93-1.88-1.32-.73-.39-1.58-.71-2.55-.97-.97-.25-2.1-.38-3.38-.38Z"/>
      <path class="cls-2" d="M316.31,151.69c.61,0,1.27-.14,1.99-.43s1.41-.66,2.09-1.12,1.27-.96,1.78-1.5c.51-.54.87-1.05,1.07-1.53l12.57-31.3,15.73,31.3c.27.54.63,1.09,1.07,1.63.44.54.93,1.04,1.48,1.48.54.44,1.11.8,1.71,1.07.59.27,1.2.41,1.81.41v.51h-19.34v-.51c.61,0,1.25-.14,1.91-.43.66-.29,1.25-.66,1.76-1.12.51-.46.87-.95,1.09-1.48s.2-1.04-.08-1.55h.1l-1.88-3.72h-13.69l-1.53,3.72c0,.51.18,1.04.54,1.58.36.54.81,1.04,1.37,1.48.56.44,1.17.81,1.83,1.09.66.29,1.3.43,1.91.43v.51h-15.27v-.51ZM328.47,140.85h11.4l-6.26-12.47-5.14,12.47Z"/>
      <path class="cls-2" d="M366.14,119.12h-4.58c-.51,0-1.11.31-1.81.94-.7.63-1.37,1.37-2.01,2.24-.65.87-1.19,1.76-1.63,2.67-.44.92-.66,1.68-.66,2.29h-.51l1.53-10.69h26.98l1.53,10.69h-.51c0-.61-.22-1.37-.66-2.29-.44-.92-.98-1.81-1.63-2.67-.64-.87-1.32-1.61-2.01-2.24-.7-.63-1.3-.94-1.81-.94h-4.58v28c0,.51.13,1.04.41,1.58.27.54.64,1.04,1.09,1.48.46.44.97.81,1.55,1.09s1.17.43,1.78.43v.51h-17.31v-.51c.61,0,1.2-.14,1.78-.43s1.09-.65,1.55-1.09c.46-.44.82-.93,1.09-1.48.27-.54.41-1.07.41-1.58v-28Z"/>
      <path class="cls-2" d="M404.57,118.61c-1.36,0-2.64.27-3.84.81s-2.26,1.37-3.18,2.49c-.92,1.12-1.64,2.54-2.16,4.28-.53,1.73-.79,3.77-.79,6.11,0,1.87.28,3.85.84,5.96.56,2.1,1.39,4.03,2.49,5.78,1.1,1.75,2.47,3.2,4.1,4.35,1.63,1.15,3.49,1.73,5.6,1.73,1.05,0,1.98-.13,2.77-.38.8-.25,1.5-.58,2.11-.97.61-.39,1.14-.83,1.6-1.32s.87-.98,1.25-1.45c.68-1.08,1.38-2.43,2.11-4.05.73-1.61,1.26-3.28,1.6-5.01h.51v9.47c-.34.71-.82,1.46-1.45,2.24-.63.78-1.46,1.49-2.49,2.11s-2.27,1.14-3.72,1.55-3.15.61-5.12.61c-2.75,0-5.33-.42-7.74-1.27s-4.5-2.08-6.29-3.69c-1.78-1.61-3.19-3.56-4.22-5.85-1.04-2.29-1.55-4.86-1.55-7.71s.44-5.43,1.32-7.74c.88-2.31,2.1-4.26,3.67-5.85,1.56-1.59,3.41-2.83,5.55-3.69s4.45-1.3,6.92-1.3c1.73,0,3.34.2,4.84.61,1.49.41,2.83.92,4,1.55,1.17.63,2.16,1.33,2.95,2.11.8.78,1.37,1.53,1.71,2.24v9.47h-.51c-.34-1.73-.87-3.4-1.6-5.01-.73-1.61-1.43-2.96-2.11-4.05-.37-.48-.82-.96-1.35-1.45-.53-.49-1.15-.93-1.88-1.32-.73-.39-1.58-.71-2.54-.97-.97-.25-2.1-.38-3.38-.38Z"/>
      <path class="cls-2" d="M421.11,116.57h17.31v.51c-.61,0-1.21.14-1.78.43-.58.29-1.09.65-1.55,1.09-.46.44-.82.93-1.09,1.48-.27.54-.41,1.07-.41,1.58v11.45h13.84v-11.45c0-.51-.14-1.03-.41-1.58-.27-.54-.64-1.03-1.09-1.48-.46-.44-.98-.81-1.55-1.09-.58-.29-1.17-.43-1.78-.43v-.51h17.31v.51c-.61,0-1.21.14-1.78.43s-1.09.65-1.55,1.09c-.46.44-.82.93-1.09,1.48-.27.54-.41,1.07-.41,1.58v25.45c0,.51.14,1.04.41,1.58s.64,1.04,1.09,1.48c.46.44.97.81,1.55,1.09.58.29,1.17.43,1.78.43v.51h-17.31v-.51c.61,0,1.2-.14,1.78-.43.58-.29,1.09-.65,1.55-1.09.46-.44.82-.93,1.09-1.48s.41-1.07.41-1.58v-11.45h-13.84v11.45c0,.51.13,1.04.41,1.58.27.54.64,1.04,1.09,1.48.46.44.97.81,1.55,1.09s1.17.43,1.78.43v.51h-17.31v-.51c.61,0,1.2-.14,1.78-.43s1.09-.65,1.55-1.09c.46-.44.82-.93,1.09-1.48.27-.54.41-1.07.41-1.58v-25.45c0-.51-.14-1.03-.41-1.58-.27-.54-.64-1.03-1.09-1.48-.46-.44-.98-.81-1.55-1.09-.58-.29-1.17-.43-1.78-.43v-.51Z"/>
      <path class="cls-2" d="M460.92,116.57h28.25l1.53,10.69h-.51c0-.61-.22-1.37-.66-2.29-.44-.92-.99-1.81-1.63-2.67-.65-.87-1.32-1.61-2.01-2.24-.7-.63-1.3-.94-1.81-.94h-10.69v14h4.07c1.02,0,1.88-.23,2.6-.69s1.29-1.03,1.73-1.71c.44-.68.76-1.4.97-2.16.2-.76.31-1.45.31-2.06h.51v15.78h-.51c0-.61-.1-1.3-.31-2.06-.2-.76-.53-1.48-.97-2.16-.44-.68-1.02-1.25-1.73-1.71s-1.58-.69-2.6-.69h-4.07v14h11.2c.51,0,1.11-.31,1.81-.94.7-.63,1.37-1.38,2.01-2.24.64-.87,1.19-1.76,1.63-2.67.44-.92.66-1.68.66-2.29h.51l-1.53,10.69h-28.76v-.51c.61,0,1.2-.14,1.78-.43s1.09-.65,1.55-1.09c.46-.44.82-.93,1.09-1.48.27-.54.41-1.07.41-1.58v-25.45c0-.51-.14-1.03-.41-1.58-.27-.54-.64-1.03-1.09-1.48-.46-.44-.98-.81-1.55-1.09-.58-.29-1.17-.43-1.78-.43v-.51Z"/>
      <path class="cls-2" d="M511.31,151.69c.51,0,1.02-.07,1.53-.2.51-.13.95-.34,1.32-.61.37-.27.64-.61.81-1.02.17-.41.19-.88.05-1.42l-.61-1.22s0-.05-.03-.05c-.02,0-.03-.02-.03-.05l-4.63-9.72c-.34.03-.68.05-1.02.05h-4.02v9.67c0,.51.13,1.04.41,1.58.27.54.64,1.04,1.09,1.48.46.44.97.81,1.55,1.09s1.17.43,1.78.43v.51h-17.31v-.51c.61,0,1.2-.14,1.78-.43s1.09-.65,1.55-1.09c.46-.44.82-.93,1.09-1.48.27-.54.41-1.07.41-1.58v-25.45c0-.51-.14-1.03-.41-1.58-.27-.54-.64-1.03-1.09-1.48-.46-.44-.98-.81-1.55-1.09-.58-.29-1.17-.43-1.78-.43v-.51h15.37c2.95,0,5.48.27,7.58.81,2.1.54,3.83,1.3,5.17,2.26,1.34.97,2.33,2.11,2.98,3.44.64,1.32.97,2.78.97,4.38,0,2.24-.52,4.05-1.55,5.42s-2.54,2.42-4.5,3.13l5.55,11.66c.44.51.94,1,1.5,1.48.56.48,1.15.91,1.76,1.3.61.39,1.23.7,1.86.92.63.22,1.21.33,1.76.33v.51h-19.34v-.51ZM504.69,134.89h2.14c1.83,0,3.36-.17,4.58-.51,1.22-.34,2.2-.83,2.93-1.48.73-.64,1.25-1.42,1.58-2.34.32-.92.48-1.95.48-3.1,0-5.56-3.16-8.35-9.47-8.35h-2.24v15.78Z"/>
    </g>
  </g>
  <path class="cls-3" d="M305.3,108.5h-.9c0-12.2-.4-27.5-5.8-36.5-5.4-9.1-13.9-8.9-21-8.9v-1.5c7.2,0,17.9-.8,23.3-9.9,5.4-9.1,3.5-23.4,3.5-35.5h.9c0,12.2-.6,27.5,4.8,36.6s14.9,8.9,22.1,8.9v1.5c-7.2,0-15.9-.5-21.2,8.5-5.4,9.1-5.6,24.8-5.6,36.9h0l-.1-.1Z"/>
  <path class="cls-2" d="M267.5,88.8c3.6-.8,5.8,3.5,5.1,7,3.2-1.8,7.2-.4,9.5,2.4l.5-.2c1.1-2.6,3.7-2.1,5.8-1.2,1.2-4.6,5.8-.8,8.1.4s4.1.9,4.1,3.1c.2.2,2.8-.9,3.4-1,.9-.1,2.5.2,3.2,0s0-1.4,1.7-1.8,2.7.6,3.9.4c3.3-.3,1.4-2.8,1.3-4.9,0-3.2,3.2-3.8,5.5-3-1.1-2.4-.3-5.1,2.3-5.6-3.5-3.3,1.6-5.2,4.2-3.5-5.1-14.4,25.2-14.5,21.5-.4,2.3-1,7.4-1.9,7.1,2.1,1,0,2-.1,2.7.7.6,1.1-.6,2-.5,2.1,4.5-.6,9.4,1.5,9.6,7,1.1-.3,2-1.1,3.1-1.3,2-.3,5.4-.3,5.2,2.7,3.1-1.6,6.7-2.1,10-1s2.2,1.5,2.7,1.6,1.9-.8,2.9-.8c4.4-.1,3.1,4,5.9,6.4,4.2,3.6,15.6,3.1,21.1,3.7,3.3.3,14.4,1.3,16.7,3.2s.7.4.5,1h-3.4c-21.4,1.7-43.6,4.5-64.9,4.9-3.9,0-7.9,0-11.7-.7l.2-1.1,2-1.2c0-.7-4.8-1.2-5.6-1.2-11.5-.7-24.7.3-36.3.7-27.9,1-56,3.4-83.9,3.9-7.3.1-15.3.7-22-2.1-.1-.7,0-.6.4-.8,2-1,11.5-1.1,12.1-2-.1-.6-.6-.8-1.1-1-1-.4-3.9-.6-5.1-.7-5.4-.3-11,.5-16.4.7-9.4.4-18.7.8-28.1,1.1-.1-.5.2-.7.5-1.1,1.5-1.5,7.9-2.1,10.3-3.1s5-3.9,7.7-1.8c.3,0,1-3.4,1.3-4.2,2-5.1,8-7.9,12.8-6.6,1.7.5,2.9,1.7,4.4,2.4-.3-6.2,4.9-10.1,10.3-8.2.6.2,3.3,2.1,3.5,1.9-2.1-4.5.5-10,5.1-10.5-.5-.7-1.4-1.1-1.9-1.9-2.5-4.2,1.7-9,5.3-5.1,1-1.4,1.4-3.1,2.3-4.5,6.7-11.1,23.4-11.6,30.5-.7,3.4,5.3,5.2,12.4.8,17.7,2.3,1.3,3.8,3.2,3.9,6.1h-.1Z"/>
</svg>